<?xml version="1.0" encoding="UTF-8"?>
<svg width="128px" height="128px" viewBox="0 0 128 128" version="1.1" xmlns="http://www.w3.org/2000/svg" xmlns:xlink="http://www.w3.org/1999/xlink">
    <title>src/images/Github</title>
    <defs>
        <filter id="filter-1">
            <feColorMatrix in="SourceGraphic" type="matrix" values="0 0 0 0 0.000000 0 0 0 0 0.000000 0 0 0 0 0.000000 0 0 0 1.000000 0"></feColorMatrix>
        </filter>
    </defs>
    <g id="Github" stroke="none" stroke-width="1" fill="none" fill-rule="evenodd">
        <g filter="url(#filter-1)" fill="#000000" id="webapp-/-Github">
            <g>
                <g id="Octicons-mark-github" fill="none" transform="translate(0.000000, 2.000000)">
                    <path d="M64,0 C28.64,0 0,28.64 0,64 C0,92.32 18.32,116.24 43.76,124.72 C46.96,125.28 48.16,123.36 48.16,121.68 C48.16,120.16 48.08,115.12 48.08,109.76 C32,112.72 27.84,105.84 26.56,102.24 C25.84,100.4 22.72,94.72 20,93.2 C17.76,92 14.56,89.04 19.92,88.96 C24.96,88.88 28.56,93.6 29.76,95.52 C35.52,105.2 44.72,102.48 48.4,100.8 C48.96,96.64 50.64,93.84 52.48,92.24 C38.24,90.64 23.36,85.12 23.36,60.64 C23.36,53.68 25.84,47.92 29.92,43.44 C29.28,41.84 27.04,35.28 30.56,26.48 C30.56,26.48 35.92,24.8 48.16,33.04 C53.28,31.6 58.72,30.88 64.16,30.88 C69.6,30.88 75.04,31.6 80.16,33.04 C92.4,24.72 97.76,26.48 97.76,26.48 C101.28,35.28 99.04,41.84 98.4,43.44 C102.48,47.92 104.96,53.6 104.96,60.64 C104.96,85.2 90,90.64 75.76,92.24 C78.08,94.24 80.08,98.08 80.08,104.08 C80.08,112.64 80,119.52 80,121.68 C80,123.36 81.2,125.36 84.4,124.72 C109.68,116.24 128,92.24 128,64 C128,28.64 99.36,0 64,0 Z" id="Path" fill="#1B1F23"></path>
                </g>
            </g>
        </g>
    </g>
</svg>