<?xml version="1.0" encoding="UTF-8"?>
<svg width="128px" height="128px" viewBox="0 0 128 128" version="1.1" xmlns="http://www.w3.org/2000/svg" xmlns:xlink="http://www.w3.org/1999/xlink">
    <title>src/images/Linkedin</title>
    <defs>
        <filter id="filter-1">
            <feColorMatrix in="SourceGraphic" type="matrix" values="0 0 0 0 0.000000 0 0 0 0 0.000000 0 0 0 0 0.000000 0 0 0 1.000000 0"></feColorMatrix>
        </filter>
    </defs>
    <g id="Linkedin" stroke="none" stroke-width="1" fill="none" fill-rule="evenodd">
        <g filter="url(#filter-1)" fill="#000000" id="webapp-/-Linkedin">
            <g>
                <path d="M118.541034,-2.84217094e-14 C123.765015,-2.84217094e-14 128,4.1386042 128,9.24075682 L128,119.759243 C128,124.863119 123.765015,129 118.541034,129 L9.45896578,129 C4.2348132,129 7.39235011e-15,124.863119 6.76730553e-15,119.759243 L-6.76730553e-15,9.24075682 C-7.39213902e-15,4.1386042 4.2348132,0 9.45896578,0 L118.541034,-2.84217094e-14 Z M38.8007616,49.7356459 L19.4675072,49.7356459 L19.4675072,107.986371 L38.8007616,107.986371 L38.8007616,49.7356459 Z M86.2553169,48.3687516 L85.778086,48.372869 C76.0006016,48.5424759 71.4930806,53.9160077 68.9436902,57.8113689 L68.9436902,57.8113689 L68.8316377,57.9828457 L68.8320657,49.7356459 L49.4984671,49.7356459 L49.5059419,49.9137171 C49.7427452,56.1238737 49.5083338,105.914617 49.498766,107.92383 L49.4984671,107.986371 L68.8315494,107.986371 L68.8315494,75.4567004 L68.833567,75.0838484 C68.8514625,73.4698281 68.9936608,71.887656 69.4677008,70.7320381 C70.8653062,67.2536111 74.0464076,63.6510776 79.3872567,63.6510776 C86.3830291,63.6510776 89.1815101,68.9928246 89.1815101,76.8235946 L89.1815101,76.8235946 L89.1815101,107.986371 L108.513043,107.986371 L108.513043,74.5862318 L108.510188,74.0523403 C108.321966,56.5285467 98.8478775,48.3687516 86.2553169,48.3687516 L86.2553169,48.3687516 Z M29.2619327,21.6548457 C22.6486085,21.6548457 18.3246377,26.0037414 18.3246377,31.7195313 C18.3246377,37.309491 22.5200357,41.7824931 29.0080573,41.7824931 L29.0080573,41.7824931 L29.1340483,41.7824931 C35.8759453,41.7824931 40.0722039,37.309491 40.0722039,31.7195313 C39.9465571,26.0037414 35.8759453,21.6548457 29.2619327,21.6548457 Z" id="Combined-Shape" fill="#006699" fill-rule="nonzero"></path>
            </g>
        </g>
    </g>
</svg>