<?xml version="1.0" encoding="UTF-8"?>
<svg width="128px" height="128px" viewBox="0 0 128 128" version="1.1" xmlns="http://www.w3.org/2000/svg" xmlns:xlink="http://www.w3.org/1999/xlink">
    <title>src/assets/Oldwebsite</title>
    <g id="Oldwebsite" stroke="none" stroke-width="1" fill="none" fill-rule="evenodd">
        <path d="M120,0 C124.418278,-8.11624501e-16 128,3.581722 128,8 L128,120 C128,124.418278 124.418278,128 120,128 L8,128 C3.581722,128 5.41083001e-16,124.418278 0,120 L0,8 C-5.41083001e-16,3.581722 3.581722,8.11624501e-16 8,0 L120,0 Z M64,14 C36.3857625,14 14,36.3857625 14,64 C14,91.6142375 36.3857625,114 64,114 C91.6142375,114 114,91.6142375 114,64 C114,36.3857625 91.6142375,14 64,14 Z M71.1963751,97.6521845 L71.0242665,98.2726515 L70.9036166,98.689351 C68.7618483,105.989074 66.0820274,110 64,110 C61.8214082,110 58.9882856,105.608393 56.8026276,97.6520873 C59.1543085,97.881448 61.5575383,98 64,98 C66.4421164,98 68.845012,97.8814815 71.1963751,97.6521845 L71.1963751,97.6521845 Z M41.5248266,94.3986543 C44.9775363,95.5760647 48.6571869,96.4894514 52.5050956,97.1014034 C53.7187649,101.8717 55.2179789,105.825958 56.9562365,108.70701 C50.9509976,106.465584 45.6115556,101.427787 41.5967685,94.5216176 L41.5967685,94.5216176 Z M86.4746867,94.3982619 C82.4518998,101.367795 77.0846996,106.452261 71.0444822,108.706966 C72.7820211,105.825958 74.2812351,101.8717 75.495163,97.1017594 C79.2517185,96.503948 82.8481352,95.6191455 86.2295598,94.4818368 L86.2295598,94.4818368 Z M21.7720893,82.2732654 C25.4337536,86.1861234 30.239092,89.5431118 35.8614257,92.1390209 C38.4568882,97.760908 41.8138766,102.566246 45.7272034,106.227746 C35.1109452,101.627606 26.5701624,93.1412498 21.8992141,82.5630369 L21.8992141,82.5630369 Z M106.227746,82.2727966 C101.585609,92.985975 92.985975,101.585609 82.2732654,106.227911 C86.1861234,102.566246 89.5431118,97.760908 92.1390209,92.1385743 C97.6776284,89.5815596 102.4237,86.2854135 106.064433,82.4467877 L106.064433,82.4467877 Z M74.0805686,81.6589343 C73.6168149,85.927961 72.9858356,89.9232016 72.2062177,93.5211951 C69.545506,93.8355786 66.8033114,94 64,94 C61.1966886,94 58.454494,93.8355786 55.7935227,93.5214624 C55.0141644,89.9232016 54.3831851,85.927961 53.9192377,81.658338 C57.1754681,81.8832492 60.5469213,82 64,82 C67.313089,82 70.5510367,81.8925236 73.6841684,81.6851582 L73.6841684,81.6851582 Z M35.6379762,78.9860953 C39.9331398,80.0136093 44.7145697,80.8019287 49.8389977,81.3148787 C50.2609933,85.4595881 50.8357036,89.3417898 51.5479989,92.8811588 C47.0000348,92.0438899 42.7425489,90.760305 38.8891398,89.1111367 C37.5856074,86.0656248 36.5105733,82.7679188 35.7037485,79.2739517 L35.7037485,79.2739517 Z M92.3619386,78.9864351 C91.5481409,82.5870959 90.4500935,85.9822149 89.1111367,89.1108602 C85.2574511,90.760305 80.9999652,92.0438899 76.4516745,92.8808504 C77.1642964,89.3417898 77.7390067,85.4595881 78.1619725,81.3141732 C83.2494805,80.805523 87.9997437,80.0246585 92.2715384,79.0076893 L92.2715384,79.0076893 Z M107.932497,72.8647824 C105.398858,78.1622109 100.659175,82.8609126 94.3986543,86.4751734 C95.3367438,83.7242626 96.1072327,80.8292912 96.6911567,77.8196437 C101.094325,76.487991 104.825955,74.8732696 107.684225,73.0270836 L107.684225,73.0270836 Z M20.0675941,72.8647437 C22.9566596,74.778715 26.7770844,76.4491012 31.3086202,77.8200695 C31.8927673,80.8292912 32.6632562,83.7242626 33.6017381,86.4746867 C27.3762426,82.8813555 22.6548151,78.2153368 20.1107126,72.9546266 L20.1107126,72.9546266 Z M74.9887391,66.0009411 C74.9438085,69.9871418 74.7650493,73.8799553 74.4637901,77.6055494 C71.1024809,77.8622721 67.5996083,78 64,78 C60.4003917,78 56.8975191,77.8622721 53.5363036,77.605943 C53.2349507,73.8799553 53.0561915,69.9871418 53.0112609,66.0009411 L53.0112609,66.0009411 Z M93.9719777,66.0007909 C93.8889017,68.9606714 93.6224243,71.8453647 93.1893409,74.6298586 C88.8843957,75.7491358 83.925318,76.6453599 78.520636,77.2323641 C78.7895689,73.637839 78.9487315,69.8784326 78.9895092,66.0010695 L78.9895092,66.0010695 Z M34.0280223,66.0007909 L49.0104908,66.0010695 C49.0512685,69.8784326 49.2104311,73.637839 49.4793869,77.2313993 C44.074682,76.6453599 39.1156043,75.7491358 34.8098687,74.6301013 C34.3775757,71.8453647 34.1110983,68.9606714 34.0280223,66.0007909 L34.0280223,66.0007909 Z M18.5330135,66.0004405 L30.0266109,66.0012024 C30.0936246,68.516763 30.2864416,70.986281 30.5969723,73.3952704 C24.3110006,71.3219961 19.9821127,68.7285242 18.5330135,66.0004405 L18.5330135,66.0004405 Z M109.466986,66.0004405 C108.017887,68.7285242 103.688999,71.3219961 97.4036354,73.3959222 C97.7135584,70.986281 97.9063754,68.516763 97.9733891,66.0012024 L97.9733891,66.0012024 Z M30.5963646,54.6040778 C30.2864005,57.0140382 30.0935735,59.4838914 30.0265842,61.9997975 L30.0265842,61.9997975 L18.5324829,62.0005586 C19.9726462,59.2879489 24.2600647,56.7083785 30.4876784,54.6408954 L30.4876784,54.6408954 Z M49.4793497,50.7678265 C49.210404,54.3625809 49.0512423,58.1222363 49.010481,61.9998593 L49.010481,61.9998593 L34.0279943,62.0002075 C34.1110384,59.0399773 34.3775271,56.1549484 34.8106591,53.3701414 C39.1100475,52.252309 44.0618807,51.3569542 49.4584598,50.7708717 L49.4584598,50.7708717 Z M64,50 C67.5996083,50 71.1024809,50.1377279 74.4636964,50.394057 C74.7650745,54.1203563 74.9438384,58.0135094 74.9887504,62.0000592 L74.9887504,62.0000592 L53.0112496,62.0000592 C53.0561616,58.0135094 53.2349255,54.1203563 53.5362099,50.3944506 C56.8975191,50.1377279 60.4003917,50 64,50 Z M78.5206131,50.7686007 C83.925318,51.3546401 88.8843957,52.2508642 93.1901313,53.3698987 C93.6224729,56.1549484 93.8889616,59.0399773 93.9720057,62.0002075 L93.9720057,62.0002075 L78.9895197,61.99993 C78.9502658,58.2655691 78.8011987,54.6406197 78.5500146,51.1670029 L78.5500146,51.1670029 Z M97.4030277,54.6047296 C103.689767,56.678257 108.018944,59.272109 109.467517,62.0005586 L109.467517,62.0005586 L97.9734158,61.9997975 C97.9113281,59.6679799 97.741144,57.3757224 97.4697907,55.1340437 L97.4697907,55.1340437 Z M33.6013457,41.5248266 C32.6632562,44.2757374 31.8927673,47.1707088 31.3088433,50.1803563 C26.7770844,51.5508988 22.9566596,53.221285 20.067503,55.1352176 C22.5844759,49.8726357 27.2785649,45.2009297 33.4783824,41.5967685 L33.4783824,41.5967685 Z M94.3982619,41.5253133 C100.659175,45.1390874 105.398858,49.8377891 107.932406,55.1352563 C105.04334,53.221285 101.222916,51.5508988 96.6913798,50.1799305 C96.1245908,47.2601289 95.38237,44.4478884 94.4818368,41.7704402 L94.4818368,41.7704402 Z M51.5483966,35.1187964 C50.8357317,38.6580025 50.2609909,42.540385 49.8390251,46.6857271 C44.7151904,47.1979689 39.9334185,47.986324 35.6380614,49.0135649 C36.4518591,45.4129041 37.5499065,42.0177851 38.8888633,38.8891398 C42.7267686,37.2464492 46.9651741,35.9666284 51.492144,35.1291491 L51.492144,35.1291491 Z M76.4520011,35.1188412 C80.9999652,35.9561101 85.2574511,37.239695 89.1108602,38.8888633 C90.4500935,42.0177851 91.5481409,45.4129041 92.3620238,49.0139047 C88.0668602,47.9863907 83.2854303,47.1980713 78.1610023,46.6851213 C77.7604588,42.7511083 77.2223326,39.0535922 76.5592818,35.661524 L76.5592818,35.661524 Z M64,34 C66.8033114,34 69.545506,34.1644214 72.2064773,34.4785376 C72.9858356,38.0767984 73.6168149,42.072039 74.0807623,46.341662 C70.8245319,46.1167508 67.4530787,46 64,46 C60.5469213,46 57.1754681,46.1167508 53.9194314,46.3410657 C54.3831851,42.072039 55.0141644,38.0767984 55.7937823,34.4788049 C58.454494,34.1644214 61.1966886,34 64,34 Z M45.7267346,21.7720893 C41.8138766,25.4337536 38.4568882,30.239092 35.8609791,35.8614257 C30.239092,38.4568882 25.4337536,41.8138766 21.772254,45.7272034 C26.3723942,35.1109452 34.8587502,26.5701624 45.4369631,21.8992141 L45.4369631,21.8992141 Z M82.2727966,21.772254 C92.985975,26.4143907 101.585609,35.014025 106.227911,45.7267346 C102.566246,41.8138766 97.760908,38.4568882 92.1385743,35.8609791 C89.5815596,30.3223716 86.2854135,25.5763002 82.4467877,21.9355669 L82.4467877,21.9355669 Z M56.955249,19.2934802 C55.2178548,22.1743994 53.7187549,26.1284071 52.504837,30.8982406 C48.6571869,31.5105486 44.9775363,32.4239353 41.5253133,33.6017381 C45.5265941,26.6694642 50.8579522,21.6021569 56.8594088,19.329395 L56.8594088,19.329395 Z M71.0437635,19.2929905 C77.0846996,21.5477393 82.4518998,26.6322047 86.4751734,33.6013457 C83.0224637,32.4239353 79.3428131,31.5105486 75.4949044,30.8985966 C74.3173428,26.2702203 72.8709742,22.4100496 71.198928,19.553015 L71.198928,19.553015 Z M64,18 C66.1785918,18 69.0117144,22.3916072 71.1973724,30.3479127 C68.8456915,30.118552 66.4424617,30 64,30 C61.5578836,30 59.154988,30.1185185 56.8036249,30.3478155 L56.8036249,30.3478155 L56.9757335,29.7273485 L57.0963834,29.310649 C59.197741,22.1486565 61.8170389,18.1525265 63.8815186,18.0042788 L63.8815186,18.0042788 Z" id="Combined-Shape" fill="#000000"></path>
    </g>
</svg>