<?xml version="1.0" encoding="UTF-8"?>
<svg width="128px" height="128px" viewBox="0 0 128 128" version="1.1" xmlns="http://www.w3.org/2000/svg" xmlns:xlink="http://www.w3.org/1999/xlink">
    <title>src/assets/Twitter</title>
    <defs>
        <filter id="filter-1">
            <feColorMatrix in="SourceGraphic" type="matrix" values="0 0 0 0 0.000000 0 0 0 0 0.000000 0 0 0 0 0.000000 0 0 0 1.000000 0"></feColorMatrix>
        </filter>
    </defs>
    <g id="Twitter" stroke="none" stroke-width="1" fill="none" fill-rule="evenodd">
        <g filter="url(#filter-1)" fill="#000000" id="webapp-/-Twitter">
            <g>
                <g id="Twitter_Bird" fill="none" transform="translate(0.000000, 12.000000)" fill-rule="nonzero">
                    <path d="M40.2550421,104.026639 C88.5601718,104.026639 114.974514,64.00832 114.974514,29.3071764 C114.974514,28.1705192 114.951362,27.0389906 114.900377,25.9125777 C120.028104,22.2056634 124.485111,17.5796961 128.000026,12.3137203 C123.294699,14.4052617 118.230971,15.8132789 112.918915,16.4481675 C118.341051,13.1969289 122.50365,8.05384161 124.467191,1.92257718 C119.39322,4.93060725 113.773964,7.11687302 107.791184,8.29704161 C102.998817,3.19235007 96.1763479,-4.88319303e-14 88.6217149,-4.88319303e-14 C74.1191689,-4.88319303e-14 62.3584086,11.7607603 62.3584086,26.258182 C62.3584086,28.3189992 62.5888086,30.323505 63.0393772,32.2460779 C41.2126024,31.1478293 21.8588005,20.6978062 8.90763597,4.80772725 C6.6522502,8.68872591 5.35176161,13.1969289 5.35176161,18.0072161 C5.35176161,27.1183506 9.98796456,35.1619522 17.0382733,39.8672795 C12.7297546,39.7341595 8.68235168,38.5514223 5.14439302,36.5827651 C5.14052725,36.6929482 5.14052725,36.8003694 5.14052725,36.9181294 C5.14052725,49.636334 14.1927817,60.2553213 26.209542,62.6617428 C24.0028005,63.2633514 21.6808548,63.5859114 19.2846733,63.5859114 C17.5950561,63.5859114 15.9489589,63.4196145 14.348946,63.1123114 C17.6923361,73.5469745 27.3871506,81.1400075 38.8816709,81.3524961 C29.8934164,88.3976805 18.5704247,92.5935678 6.26438443,92.5935678 C4.14723866,92.5935678 2.05570148,92.4731447 0,92.2300392 C11.6225203,99.6797208 25.4236177,104.026639 40.2563995,104.026639" id="path3611" fill="#1DA1F2"></path>
                </g>
            </g>
        </g>
    </g>
</svg>